<svg xmlns="http://www.w3.org/2000/svg" width="689" height="99" viewBox="0 0 160.55 23.05"
     shape-rendering="geometricPrecision" image-rendering="optimizeQuality" fill-rule="nonzero" fill="#fefefe"><path d="M0 0v22.75h8.24c4.7 0 6.7-3.51 6.7-6.11 0-1.93-.97-5-5.37-5.83.9-.37 3.37-1.64 3.37-4.91C12.94 1.3 9.07 0 5.7 0H0zm4.97 2.2c3.67 0 5.3 1.1 5.3 3.9 0 2.47-1.5 4.04-5.3 4.04H2.5V2.2h2.47zm1.5 10.14c4.54 0 5.8 2.2 5.8 4.1 0 1.94-.83 4.1-5.73 4.1H2.5v-8.2h3.97zm17.44-4.87a7.76 7.76 0 0 0-7.77 7.77c0 4.3 3.47 7.81 7.77 7.81 4.31 0 7.81-3.51 7.81-7.81s-3.5-7.77-7.81-7.77zm.04 2.04c3.13 0 5.4 2.56 5.4 5.73s-2.27 5.77-5.4 5.77c-3.14 0-5.44-2.6-5.44-5.77s2.3-5.73 5.44-5.73zm22.44 10.6c-.9.73-1.63 1.07-1.93 1.07-.34 0-.4-.17-.4-.8v-8.24c0-1.68-.8-4.67-5.07-4.67-2.44 0-4.14 1.2-4.87 1.83v2.37c1.3-1.18 2.7-2.16 4.67-2.16 2.8 0 2.97 1.9 2.97 2.86v1.34c-6.21 1.11-8.21 3.08-8.21 5.53 0 2.2 1.77 3.81 3.87 3.81 1.33 0 2.5-.3 4.37-1.71.13.71.4 1.71 1.63 1.71.4 0 1.1-.04 2.97-1.37v-1.57zm-4.63-.34c-.57.54-1.77 1.61-3.37 1.61-.87 0-2.54-.5-2.54-2.31 0-1.88 2.07-3.14 5.91-3.85v4.55zm6.17-12v14.98h2.3v-6.47c0-.77 0-2.41.53-3.61.7-1.63 2.34-2.83 3.67-2.83 1.3 0 2.4.97 2.9 1.4l1.23-2C58 8.77 56.43 7.47 55 7.47c-1 0-1.97.63-2.27.83-1.24.84-2.1 2.14-2.5 2.77v-3.3h-2.3zm23.41 14.98V0h-2.3v8.37c-.64-.27-1.97-.9-3.8-.9-4.81 0-7.44 3.6-7.44 7.8 0 4.81 3.03 7.48 8.27 7.48h5.27zm-2.3-2.04H66.1c-3.53 0-5.93-1.9-5.93-5.5 0-3 1.73-5.7 5.43-5.7 1.7 0 2.9.66 3.44.96v10.24zM75.17 0v22.75h8.24c4.7 0 6.71-3.51 6.71-6.11 0-1.93-.97-5-5.37-5.83.9-.37 3.36-1.64 3.36-4.91 0-4.6-3.86-5.9-7.23-5.9h-5.71zm4.97 2.2c3.67 0 5.31 1.1 5.31 3.9 0 2.47-1.5 4.04-5.31 4.04h-2.46V2.2h2.46zm1.5 10.14c4.54 0 5.81 2.2 5.81 4.1 0 1.94-.84 4.1-5.74 4.1h-4.03v-8.2h3.96zm22.52 10.41V7.77h-2.31v10.61c-1.4 2.36-3.3 2.63-4.16 2.63-2.64 0-3.61-1.97-3.61-4.5V7.77h-2.3v8.94c0 3.87 2 6.34 5.37 6.34 2.14 0 3.6-1.11 4.7-2.57v2.27h2.31zm5.63-14.98h-2.3v14.98h2.3V7.77zm-1.13-6.1c-.84 0-1.5.66-1.5 1.5a1.49 1.49 0 0 0 1.5 1.5 1.5 1.5 0 0 0 1.5-1.5 1.49 1.49 0 0 0-1.5-1.5zM115.43 0h-2.3v22.75h2.3zm16.11 22.75V0h-2.3v8.37c-.64-.27-1.97-.9-3.81-.9-4.8 0-7.43 3.6-7.43 7.8 0 4.81 3.03 7.48 8.27 7.48h5.27zm-2.3-2.04h-2.94c-3.53 0-5.94-1.9-5.94-5.5 0-3 1.74-5.7 5.44-5.7 1.7 0 2.9.66 3.44.96v10.24zm18.34-5.84c0-4.36-2.9-7.4-6.6-7.4-3.41 0-6.87 2.54-6.87 7.74 0 4.03 2.46 7.84 7.47 7.84 3.16 0 4.83-1.17 5.77-1.81v-2.33c-.74.6-2.57 2.1-5.51 2.1-2.87 0-5.37-2-5.37-5.6h11.11v-.54zm-10.97-1.13c.56-3.03 2.56-4.23 4.43-4.23 1.64 0 3.84 1 4.17 4.23h-8.6zm13.3-5.97v14.98h2.31v-6.47c0-.77 0-2.41.53-3.61.7-1.63 2.33-2.83 3.67-2.83 1.3 0 2.4.97 2.9 1.4l1.23-2c-.56-.47-2.13-1.77-3.57-1.77-1 0-1.96.63-2.26.83-1.24.84-2.1 2.14-2.5 2.77v-3.3h-2.31z"/></svg>
