<svg
  xmlns="http://www.w3.org/2000/svg"
  xmlns:xlink="http://www.w3.org/1999/xlink"
  [attr.width]="width"
  [attr.height]="height"
  viewBox="0 0 4153.85 2957.57"
  shape-rendering="geometricPrecision"
  image-rendering="optimizeQuality"
  fill-rule="evenodd"
>
  <style>
    .E {
      fill: #206eb5
    }

    .F {
      stroke: #206eb5
    }

    .G {
      stroke-width: 69.98
    }

    .H {
      stroke-miterlimit: 22.9256
    }

    .I {
      fill: none
    }

    .page-outline {
      stroke-width: 69.98;
      stroke-miterlimit: 22.9256;
      fill: none;
    }
  </style>
  <path d="M679.6 432.08l77.06 103.68-46.42 31.63-119.83-161.2-159.78 214.96 597.92.41-244.99-329.31z" class="E"/>
  <path d="M396.1 833.42h666.98" class="F G H I"/>
  <path d="M3402.66 432.08l77.07 103.68-46.42 31.63-119.83-161.2-159.79 214.96 597.93.41-245-329.31z" class="E"/>
  <path d="M3119.16 833.42h666.99" class="F G H I"/>
  <path d="M2494.97 432.08l77.07 103.68-46.42 31.63-119.83-161.2L2246 621.15l597.93.41-245-329.31z" class="E"/>
  <path d="M2211.47 833.42h666.99" class="F G H I"/>
  <path d="M1587.29 432.08l77.06 103.68-46.42 31.63-119.83-161.2-159.78 214.96 597.92.41-244.99-329.31z" class="E"/>
  <path d="M1303.79 833.42h666.98" class="F G H I"/>
  <path d="M3402.66 1298.2l77.07 103.67-46.42 31.64-119.83-161.2-159.79 214.96 597.93.41-245-329.31z" class="E"/>
  <path d="M3119.16 1699.54h666.99" class="F G H I"/>
  <path d="M2494.97 1298.2l77.07 103.67-46.42 31.64-119.83-161.2L2246 1487.27l597.93.41-245-329.31z" class="E"/>
  <path d="M2211.47 1699.54h666.99" class="F G H I"/>
  <use xlink:href="#thumbnail" class="E"/>
  <path d="M1303.79 1699.54h666.98" class="F G H I"/>
  <use xlink:href="#thumbnail" x="-907.69" class="E"/>
  <path d="M396.1 1699.54h666.98" class="F G H I"/>
  <path d="M3402.66 2164.32l77.07 103.67-46.42 31.64-119.83-161.2-159.79 214.96 597.93.41-245-329.31z" class="E"/>
  <path d="M3119.16 2565.66h666.99" class="F G H I"/>
  <path d="M2494.97 2164.32l77.07 103.67-46.42 31.64-119.83-161.2L2246 2353.39l597.93.41-245-329.31z" class="E"/>
  <path d="M2211.47 2565.66h666.99" class="F G H I"/>
  <use xlink:href="#thumbnail" y="866.12" class="E"/>
  <path d="M1303.79 2565.66h666.98" class="F G H I"/>
  <use xlink:href="#thumbnail" x="-907.69" y="866.12" class="E"/>
  <g class="G H I">
    <path d="M396.1 2565.66h666.98" class="F"/>
  </g>
  <path class="page-outline" d="M34.99 34.99h4083.86v2887.58H34.99z" [attr.stroke]="pageOutlineColour"/>
  <defs>
    <path id="thumbnail" d="M1587.29 1298.2l77.06 103.67-46.42 31.64-119.83-161.2-159.78 214.96 597.92.41-244.99-329.31z"/>
  </defs>
</svg>
