<svg xmlns="http://www.w3.org/2000/svg" width="260" height="49" viewBox="0 0 203.244 38.596"
     shape-rendering="geometricPrecision" image-rendering="optimizeQuality" fill-rule="evenodd"><path d="M54.175 9.82v18.848h6.826c3.897 0 5.555-2.902 5.555-5.057 0-1.603-.801-4.146-4.449-4.837.746-.304 2.791-1.354 2.791-4.062 0-3.814-3.206-4.892-5.997-4.892h-4.726zm4.118 1.824c3.04 0 4.394.912 4.394 3.234 0 2.045-1.244 3.344-4.394 3.344h-2.045v-6.578h2.045zm1.244 8.402c3.758 0 4.808 1.824 4.808 3.399 0 1.603-.69 3.399-4.753 3.399h-3.344v-6.798h3.289zm15.282-4.035a6.43 6.43 0 0 0-6.439 6.439c0 3.565 2.874 6.467 6.439 6.467a6.48 6.48 0 0 0 6.467-6.467c0-3.565-2.901-6.439-6.467-6.439zm.028 1.685c2.598 0 4.477 2.128 4.477 4.754s-1.879 4.781-4.477 4.781-4.505-2.156-4.505-4.781 1.907-4.754 4.505-4.754zm19.428 8.789c-.746.608-1.354.884-1.602.884-.277 0-.332-.138-.332-.663V19.88c0-1.396-.664-3.869-4.201-3.869-2.017 0-3.427.995-4.035 1.52v1.962c1.078-.981 2.239-1.797 3.869-1.797 2.322 0 2.46 1.576 2.46 2.377v1.11c-5.14.917-6.799 2.552-6.799 4.579 0 1.828 1.465 3.155 3.206 3.155 1.106 0 2.073-.249 3.62-1.41.111.581.332 1.41 1.355 1.41.331 0 .912-.028 2.459-1.133v-1.299zm-3.841-.281c-.47.447-1.465 1.331-2.791 1.331-.719 0-2.101-.415-2.101-1.912 0-1.556 1.714-2.607 4.892-3.191v3.772zm5.942-9.945v12.409h1.906v-5.361c0-.636 0-1.99.443-2.985.58-1.354 1.934-2.349 3.04-2.349 1.078 0 1.99.801 2.404 1.161l1.023-1.659c-.47-.386-1.769-1.464-2.958-1.464-.829 0-1.63.525-1.879.691-1.022.691-1.741 1.768-2.073 2.294v-2.737h-1.906zm20.229 12.409V9.82h-1.907v6.937c-.525-.221-1.63-.746-3.15-.746-3.98 0-6.163 2.985-6.163 6.467 0 3.979 2.515 6.19 6.854 6.19h4.366zm-1.907-1.686h-2.432c-2.929 0-4.919-1.575-4.919-4.56 0-2.487 1.437-4.726 4.505-4.726 1.409 0 2.404.553 2.846.802v8.484zM127.521 9.82v18.848h6.827c3.896 0 5.554-2.902 5.554-5.057 0-1.603-.801-4.146-4.449-4.837.746-.304 2.791-1.354 2.791-4.062 0-3.814-3.206-4.892-5.997-4.892h-4.726zm4.118 1.824c3.04 0 4.395.912 4.395 3.234 0 2.045-1.244 3.344-4.395 3.344h-2.045v-6.578h2.045zm1.244 8.402c3.758 0 4.808 1.824 4.808 3.399 0 1.603-.69 3.399-4.753 3.399h-3.344v-6.798h3.289zm19.483 8.622V16.259h-1.906v8.789c-1.161 1.962-2.736 2.183-3.455 2.183-2.183 0-2.985-1.63-2.985-3.731v-7.241h-1.907v7.407c0 3.206 1.659 5.251 4.45 5.251 1.769 0 2.985-.912 3.897-2.128v1.879h1.906zm5.5-12.409h-1.907v12.409h1.907V16.259zm-.94-5.057a1.24 1.24 0 0 0-1.243 1.244c0 .691.552 1.243 1.243 1.243a1.244 1.244 0 1 0 0-2.487zm6.439-1.382h-1.906v18.848h1.906zm14.178 18.848V9.82h-1.907v6.937c-.525-.221-1.631-.746-3.151-.746-3.979 0-6.162 2.985-6.162 6.467 0 3.979 2.515 6.19 6.853 6.19h4.367zm-1.907-1.686h-2.432c-2.929 0-4.919-1.575-4.919-4.56 0-2.487 1.437-4.726 4.504-4.726 1.41 0 2.405.553 2.847.802v8.484zm16.029-4.836c0-3.62-2.405-6.135-5.472-6.135-2.819 0-5.693 2.1-5.693 6.411 0 3.344 2.045 6.495 6.19 6.495 2.626 0 4.007-.967 4.781-1.492V25.49c-.608.498-2.128 1.741-4.56 1.741-2.376 0-4.449-1.658-4.449-4.643h9.203v-.442zm-9.092-.94c.469-2.514 2.128-3.51 3.675-3.51 1.354 0 3.178.83 3.455 3.51h-7.13zm11.855-4.947v12.409h1.907v-5.361c0-.636 0-1.99.442-2.985.581-1.354 1.935-2.349 3.04-2.349 1.078 0 1.99.801 2.405 1.161l1.022-1.659c-.47-.386-1.768-1.464-2.957-1.464-.829 0-1.63.525-1.879.691-1.023.691-1.741 1.768-2.073 2.294v-2.737h-1.907z" fill="#fff" fill-rule="nonzero"/><path d="M37.805 37.825l-8.957-3.26a18.22 18.22 0 0 1-9.769 2.822C8.968 37.387.771 29.19.771 19.079S8.968.771 19.079.771a18.31 18.31 0 0 1 18.308 18.308 18.22 18.22 0 0 1-2.839 9.797l3.257 8.949z" stroke="#fff" stroke-width="1.541" stroke-linejoin="round" stroke-miterlimit="22.9256" fill="none"/><path d="M22.651 9.064c-.963-.115-1.958-.235-3.358-.17h0c.05.349.227.721.538 1.089h0c.939-.402 1.886-.713 2.82-.919zm1.576-1.118c-.648.348-1.253.843-1.576 1.118l.099-1.74c.518.134 1.027.347 1.477.622zm.185.118c.299.202.568.433.79.687a2.59 2.59 0 0 1 .452.7h0c-1.162-.289-2.098-.338-3.003-.387.417-.295 1.07-.72 1.761-1zm-1.761 1c1.098.073 2.122.257 3.06.537h0c.119.36.109.703-.021 1.002h0c-1.176-.753-2.123-1.152-3.039-1.539zm2.493 2.826c.462-.187.793-.466.985-.802.754.571 1.444 1.196 2.064 1.862h0c-.316.555-.863 1.014-1.625 1.323h0c-.418-.83-.895-1.63-1.424-2.383zm-.352-.484c-.645-.856-1.361-1.645-2.141-2.342 1.069.462 2.066 1.022 2.978 1.66h0c-.163.286-.445.523-.837.682zM24.48 7.82c-.53-.323-1.128-.574-1.738-.733-.018-.341-.065-.586-.136-.736h0c1.005.261 1.989.673 2.861 1.205-.31.002-.65.107-.987.264zm1.163-.254c-.942-.574-2.003-1.018-3.087-1.3-.034-.044-.071-.077-.111-.091 1.269.329 2.465.842 3.558 1.506a1 1 0 0 0-.36-.115zm.181.218c.583.392 1.108.843 1.54 1.337.471.577.578.73.878 1.358h0c-.626-.361-1.323-.66-2.083-.889h0c-.116-.272-.292-.549-.532-.824h0c-.262-.299-.578-.57-.931-.807.384-.13.771-.204 1.128-.175zm.204.028c.165.034.32.092.464.181 2.109 1.412 3.792 3.408 4.818 5.758-.22-.486-.502-.944-.836-1.37-.26-.611-.647-1.235-1.166-1.854l-.195-.228-.155-.167c.56.639.971 1.286 1.239 1.918h0a7.7 7.7 0 0 0-1.558-1.328c-.205-.483-.519-.977-.947-1.466-1.059-1.13-1.658-1.441-1.664-1.444zm-7.353 1.123c.059.41.267.849.633 1.281-.801.373-1.594.808-2.367 1.296h0c-.603-.714-.946-1.437-1.044-2.114.902-.227 1.832-.384 2.778-.463zm-3.362.62c.106.731.476 1.512 1.127 2.283h0a23.98 23.98 0 0 0-2.208 1.673h0c-.853-1.009-1.337-2.031-1.475-2.987a16.76 16.76 0 0 1 2.556-.969zm-5.289 2.641a14.77 14.77 0 0 1 2.21-1.412h0c.145 1.001.652 2.07 1.543 3.124-.689.618-1.341 1.274-1.942 1.957h0c-1.046-1.239-1.641-2.494-1.811-3.669zm-.434.351c.175 1.206.785 2.495 1.86 3.767a20.03 20.03 0 0 0-1.567 2.144c-1.174-1.39-1.842-2.798-2.033-4.117a12.16 12.16 0 0 1 1.74-1.794zm-3.779 7.052a8.2 8.2 0 0 1 .404-2.228c.199 1.375.895 2.844 2.12 4.294l.001-.003-.001.003c-.247.743-.4 1.446-.465 2.104-1.189-1.408-1.865-2.835-2.059-4.17zm.577-2.717c.289-.743.675-1.45 1.144-2.114.194 1.335.87 2.762 2.06 4.17h0c-.433.738-.798 1.488-1.083 2.239-1.225-1.45-1.921-2.919-2.121-4.295zm-.58 3.192c.191 1.318.858 2.727 2.033 4.117h0c-.027.637.033 1.227.174 1.762-.802-.949-1.346-1.909-1.643-2.836l.174.51.107.285c.307.784.793 1.587 1.466 2.383h0c.166.485.402.92.705 1.3-1.569-1.887-2.627-4.214-2.961-6.769a7.21 7.21 0 0 1-.055-.752zm-.045-.976c-.211-2.857 1.05-5.879 2.638-8-.66.909-.974 1.974-.921 3.12h0a9.49 9.49 0 0 0-1.146 2.098c-.034-.737.056-1.463.311-2.116-.359 1.009-.476 1.502-.485 2.604h0c-.243.752-.37 1.553-.397 2.294zm4.882-10.204a4.38 4.38 0 0 0-1.103 3.156h0c-.652.53-1.238 1.114-1.744 1.748-.056-1.204.299-2.316 1.038-3.249.55-.651 1.093-1.176 1.809-1.655zm-.668 2.818c-.053-1.15.314-2.207 1.074-3.074l-.006.004.006-.004a9.04 9.04 0 0 1 2.058-.884c-.647.738-.959 1.638-.914 2.618h0a14.04 14.04 0 0 0-2.218 1.34zm5.976-4.371c-.473.539-.702 1.197-.669 1.913h0c-.892.223-1.751.517-2.565.875a3.47 3.47 0 0 1 .874-2.503c.751-.178 1.542-.274 2.36-.285zm-.083 1.778c-.031-.663.181-1.273.619-1.772a12.98 12.98 0 0 1 2.545.344c-.266.303-.394.673-.376 1.075-.949.041-1.883.161-2.788.353zm6.781-.055c-1.12-.236-2.246-.298-3.372-.314-.016-.342.093-.656.319-.913h0c1.014.283 2.038.691 3.053 1.227zm0 0c-.887.258-1.788.621-2.684 1.071h0a4.57 4.57 0 0 0 1.25.905l1.434-1.976zm-.405 12.768l-.561 2.659c-1.962-.262-3.956-.84-5.804-1.678l1.056-2.516a19.08 19.08 0 0 0 5.309 1.535zm-1.601 6.126c-.269.731-.545 1.372-.822 1.921a21.19 21.19 0 0 1-5.878-1.699l.646-1.972a21.8 21.8 0 0 0 6.054 1.75zm-5.88-2.238l.901-2.371a21.15 21.15 0 0 0 5.879 1.698l-.726 2.422c-2.047-.273-4.127-.876-6.054-1.749zm3.563-8.507c1.402.635 2.915 1.074 4.404 1.273l-.383 2.753a18.62 18.62 0 0 1-5.17-1.494l1.149-2.532zm1.438-2.961c1.024.465 2.129.785 3.217.93l-.189 2.706a15.19 15.19 0 0 1-4.21-1.217l1.182-2.419zm.255-.503l1.154-2.177c.575.261 1.196.441 1.807.523l.02 2.515c-1.008-.134-2.032-.431-2.981-.861zm2.933-2.169c-.519-.069-1.047-.222-1.536-.444h0l1.233-2.072c.145.757.245 1.604.303 2.516zm-4.142 19.892c-1.795-.239-3.62-.768-5.31-1.535.07-.382.182-.847.337-1.391h0c1.847.838 3.841 1.416 5.803 1.677h0c-.277.509-.556.926-.83 1.249zm-1.224.811c-.102.021-.126.027-.225.018-1.342-.173-2.621-.546-3.807-1.087-.044-.027-.078-.078-.102-.148 1.341.608 2.711 1.027 4.134 1.217zm-4.126-2.108a18.63 18.63 0 0 0 5.171 1.495h0c-.273.282-.541.471-.8.565-1.489-.198-3.002-.637-4.404-1.273-.03-.177-.019-.44.033-.787zm6.006-19.78c.4.42.909.781 1.47 1.064l-1.307 2.103c-.927-.466-1.766-1.062-2.426-1.756.74-.524 1.498-.999 2.263-1.411zm-2.743 1.76c.713.749 1.619 1.392 2.619 1.896l-1.312 2.356c-1.309-.659-2.494-1.5-3.427-2.481.678-.631 1.389-1.224 2.12-1.771zm-2.558 2.188c.976 1.025 2.215 1.905 3.584 2.594l-1.25 2.484c-1.607-.81-3.062-1.842-4.208-3.046a25.59 25.59 0 0 1 1.874-2.032zm-2.247 2.494c1.176 1.237 2.671 2.297 4.321 3.128l-1.12 2.485c-1.804-.909-3.438-2.068-4.724-3.419.451-.745.962-1.48 1.523-2.194h0zm-1.808 2.681c1.303 1.369 2.957 2.542 4.784 3.462l-.924 2.36c-1.882-.947-3.585-2.156-4.927-3.566.285-.752.644-1.508 1.067-2.256zm-1.241 2.745c1.341 1.409 3.045 2.618 4.927 3.566h0l-.623 1.982c-1.827-.92-3.482-2.094-4.784-3.462.074-.647.232-1.345.48-2.086zm-.294 4.542c1.145 1.204 2.601 2.237 4.208 3.046h0c-.024.36-.001.64.067.836-1.369-.69-2.608-1.569-3.584-2.595l.15.171.23.236c.905.904 2.025 1.684 3.255 2.303h0a.95.95 0 0 0 .172.181 13.4 13.4 0 0 1-3.812-2.886l.005-.005c-.303-.365-.535-.796-.691-1.287zm-.091-.328c-.123-.515-.169-1.088-.131-1.713h0c1.286 1.351 2.919 2.51 4.723 3.418h0c-.138.553-.228 1.028-.271 1.423-1.651-.831-3.145-1.891-4.321-3.128zM26.2 10.945c.153-.351.165-.755.025-1.178.776.27 1.487.607 2.127 1.004h0c.23.698.211 1.364-.041 1.944h0c-.634-.638-1.34-1.232-2.111-1.77zm2.514 2.19c.272-.625.292-1.344.044-2.098a8.47 8.47 0 0 1 1.595 1.426h0c.324.986.298 1.928-.058 2.746h0a13.93 13.93 0 0 0-1.581-2.074zm2.99 5.32c.442-1.018.481-2.187.089-3.412l-.036-.11-.116-.327.081.214c.422 1.251.664 2.585.693 3.971l-.001-.061-.004.806c-.021.623-.154 1.218-.395 1.772h0c-.035.781-.169 1.555-.413 2.31l-.084.246-.09.243-.096.251c.699-1.619 1.087-3.404 1.087-5.279l-.004-.253c.007.696-.126 1.36-.392 1.973h0a9.9 9.9 0 0 0-.319-2.344zm-.144-.505c-.241-.772-.571-1.531-.984-2.266.372-.855.4-1.84.06-2.871a7.2 7.2 0 0 1 .995 1.765v.001c.398 1.21.365 2.366-.071 3.371zm-6.74 13.133c.245-.099.477-.207.697-.324-.418.231-.849.439-1.293.625.203-.088.402-.189.596-.301zm.345-.213c.519-.346.997-.782 1.422-1.304 1.011-.41 1.828-.957 2.44-1.605a13.39 13.39 0 0 1-2.706 2.317l-.641.39.503-.303c-.311.187-.65.356-1.018.505zm2.668-13.46c-.272-.881-.607-1.75-1-2.593.822-.333 1.412-.828 1.753-1.427.589.684 1.105 1.405 1.542 2.152v.001c-.447.782-1.219 1.431-2.295 1.867zm.168.577c1.125-.457 1.933-1.135 2.4-1.954.402.758.722 1.537.954 2.326h0c-.549.962-1.497 1.758-2.819 2.294-.111-.887-.291-1.781-.535-2.666zm.598 3.243c1.357-.549 2.331-1.368 2.894-2.355.193.793.295 1.591.299 2.384h0c-.615 1.079-1.68 1.973-3.162 2.574a15.76 15.76 0 0 0-.031-2.603zm-.021 3.151c1.502-.608 2.58-1.514 3.203-2.607a8.91 8.91 0 0 1-.42 2.324h0l-.001.003.001-.003c-.642 1.125-1.752 2.058-3.299 2.685a12 12 0 0 0 .516-2.402zm-.69 2.89c1.547-.627 2.657-1.559 3.299-2.685-.135.348-.286.677-.46.995-.321.573-.683 1.12-1.082 1.637l-.369.457.32-.393c-.642.791-1.56 1.452-2.739 1.93a8.63 8.63 0 0 0 1.031-1.941zM10.116 9.213c.467-.426.965-.818 1.489-1.174-.221.156-.425.321-.612.496l-.877.678zm1.274-.924a5.8 5.8 0 0 1 1.109-.805l-.68.414.699-.425a13.25 13.25 0 0 1 4.171-1.511l.219-.026c-.248.028-.499.081-.743.139-1.177.282-2.105.762-2.767 1.381l-2.008.833zm6.077-2.445c.53-.064 1.07-.097 1.616-.097.974 0 1.923.105 2.837.303.065.018.125.056.182.108-1.09-.236-2.188-.306-3.197-.175h0a3.8 3.8 0 0 0-1.438-.139zm1.756.245c.935-.121 1.953-.057 2.963.162h0c.124.162.225.421.302.776-.613-.133-1.23-.172-1.797-.098h0a5.56 5.56 0 0 0-1.468-.84zm3.428 2.975c-.528-.76-1.08-1.385-1.644-1.875a4.52 4.52 0 0 1 1.527.083h0c.076.464.117 1.061.117 1.792zm0 0c-.98-.572-1.971-1.014-2.953-1.331.231-.216.555-.383.966-.482l.145-.031c.627.481 1.246 1.095 1.842 1.844zm-2.363-2.061c-.483.115-.864.312-1.136.566a12.24 12.24 0 0 0-2.468-.424c.449-.419 1.077-.744 1.873-.935l.282-.06c.538.175 1.081.447 1.619.816 0 .003-.156.033-.17.037zm-1.799-.954l-.304.066c-.859.206-1.537.556-2.021 1.009h0c-.794-.014-1.563.059-2.295.217.634-.592 1.521-1.051 2.646-1.32l.399-.086 1.575.114zm3.079 26.131c-.983.186-2.036.219-3.117.124.299-.09.603-.275.907-.554h0c1.456.128 2.876.053 4.168-.257l.722-.202c-.302.176-.616.324-.94.437a13.46 13.46 0 0 1-1.74.452zm3.01-1.097l-.742.208c-1.327.318-2.785.395-4.28.264.304-.321.606-.735.901-1.241h0c1.633.144 3.227.059 4.678-.288l.811-.227c-.412.517-.872.946-1.368 1.284zm1.629-1.635l-.821.23c-1.469.352-3.084.438-4.738.292.292-.547.575-1.187.846-1.918h0c1.704.15 3.367.062 4.88-.301l.845-.237c-.281.733-.622 1.378-1.012 1.934zm.34-2.185c-1.512.362-3.175.45-4.879.3l.701-2.424c1.654.146 3.269.06 4.738-.292l.821-.23c-.107.84-.283 1.647-.535 2.409 0 .016-.773.22-.846.237zm.63-2.97c-1.45.347-3.044.432-4.678.288l.492-2.666c1.494.131 2.953.054 4.28-.264l.741-.208c.059.892.052 1.771-.024 2.623 0 .016-.741.21-.811.227zm.066-3.23c-1.292.309-2.713.385-4.168.256l.275-2.765c1.239.109 2.448.046 3.549-.218l.615-.172c.213.897.364 1.801.451 2.697 0 .014-.66.187-.722.202zm-.464-3.319c-1.052.252-2.209.314-3.394.209l.049-2.721c.906.08 1.79.033 2.594-.159l.449-.126a21.12 21.12 0 0 1 .89 2.633c0 .011-.537.152-.588.164zm-3.544-5.621c.509.045 1.006.018 1.457-.09l.253-.07a19.76 19.76 0 0 1 1.294 2.429c.002.008-.382.109-.417.117-.744.178-1.563.222-2.402.148h0l-.185-2.534zm-.066-.52c-.127-.919-.299-1.774-.518-2.539.721.718 1.38 1.528 1.971 2.403h0l-.214.06c-.384.092-.806.115-1.239.076zm-4.913 20.745c.659.059 1.308.066 1.936.017l-1.109.046c-.375 0-.746-.016-1.113-.047.094.005.19 0 .286-.016h0zm13.346-8.73l-.084.246-.09.243c.049-.115.247-.657.174-.489zm-2.489-13.319l-.595-.637.44.47.155.167z" fill="#fefefe"/></svg>
