<?xml version="1.0" encoding="UTF-8"?>
<!DOCTYPE svg PUBLIC "-//W3C//DTD SVG 1.1//EN" "http://www.w3.org/Graphics/SVG/1.1/DTD/svg11.dtd">
<!-- Creator: CorelDRAW 2019 (64-Bit) -->
<svg xmlns="http://www.w3.org/2000/svg" xml:space="preserve" width="260px" height="49px" version="1.1" style="shape-rendering:geometricPrecision; text-rendering:geometricPrecision; image-rendering:optimizeQuality; fill-rule:evenodd; clip-rule:evenodd"
viewBox="0 0 203.244 38.596"
 xmlns:xlink="http://www.w3.org/1999/xlink"
 xmlns:xodm="http://www.corel.com/coreldraw/odm/2003">
 <defs>
  <style type="text/css">
   <![CDATA[
    .str0 {stroke:white;stroke-width:1.541;stroke-linejoin:round;stroke-miterlimit:22.9256}
    .fil1 {fill:none}
    .fil2 {fill:#FEFEFE}
    .fil0 {fill:white;fill-rule:nonzero}
   ]]>
  </style>
 </defs>
 <g id="Layer_x0020_1">
  <metadata id="CorelCorpID_0Corel-Layer"/>
  <path class="fil0" d="M54.175 9.82l0 18.848 6.826 0c3.897,0 5.555,-2.902 5.555,-5.057 0,-1.603 -0.801,-4.146 -4.449,-4.837 0.746,-0.304 2.791,-1.354 2.791,-4.062 0,-3.814 -3.206,-4.892 -5.997,-4.892l-4.726 0zm4.118 1.824c3.04,0 4.394,0.912 4.394,3.234 0,2.045 -1.244,3.344 -4.394,3.344l-2.045 0 0 -6.578 2.045 0zm1.244 8.402c3.758,0 4.808,1.824 4.808,3.399 0,1.603 -0.69,3.399 -4.753,3.399l-3.344 0 0 -6.798 3.289 0z"/>
  <path id="1" class="fil0" d="M74.819 16.011c-3.565,0 -6.439,2.874 -6.439,6.439 0,3.565 2.874,6.467 6.439,6.467 3.566,0 6.467,-2.902 6.467,-6.467 0,-3.565 -2.901,-6.439 -6.467,-6.439zm0.028 1.685c2.598,0 4.477,2.128 4.477,4.754 0,2.625 -1.879,4.781 -4.477,4.781 -2.598,0 -4.505,-2.156 -4.505,-4.781 0,-2.626 1.907,-4.754 4.505,-4.754z"/>
  <path id="2" class="fil0" d="M94.275 26.485c-0.746,0.608 -1.354,0.884 -1.602,0.884 -0.277,0 -0.332,-0.138 -0.332,-0.663l0 -6.826c0,-1.396 -0.664,-3.869 -4.201,-3.869 -2.017,0 -3.427,0.995 -4.035,1.52l0 1.962c1.078,-0.981 2.239,-1.797 3.869,-1.797 2.322,0 2.46,1.576 2.46,2.377l0 1.11c-5.14,0.917 -6.799,2.552 -6.799,4.579 0,1.828 1.465,3.155 3.206,3.155 1.106,0 2.073,-0.249 3.62,-1.41 0.111,0.581 0.332,1.41 1.355,1.41 0.331,0 0.912,-0.028 2.459,-1.133l0 -1.299zm-3.841 -0.281c-0.47,0.447 -1.465,1.331 -2.791,1.331 -0.719,0 -2.101,-0.415 -2.101,-1.912 0,-1.556 1.714,-2.607 4.892,-3.191l0 3.772z"/>
  <path id="3" class="fil0" d="M96.376 16.259l0 12.409 1.906 0 0 -5.361c0,-0.636 0,-1.99 0.443,-2.985 0.58,-1.354 1.934,-2.349 3.04,-2.349 1.078,0 1.99,0.801 2.404,1.161l1.023 -1.659c-0.47,-0.386 -1.769,-1.464 -2.958,-1.464 -0.829,0 -1.63,0.525 -1.879,0.691 -1.022,0.691 -1.741,1.768 -2.073,2.294l0 -2.737 -1.906 0z"/>
  <path id="4" class="fil0" d="M116.605 28.668l0 -18.848 -1.907 0 0 6.937c-0.525,-0.221 -1.63,-0.746 -3.15,-0.746 -3.98,0 -6.163,2.985 -6.163,6.467 0,3.979 2.515,6.19 6.854,6.19l4.366 0zm-1.907 -1.686l-2.432 0c-2.929,0 -4.919,-1.575 -4.919,-4.56 0,-2.487 1.437,-4.726 4.505,-4.726 1.409,0 2.404,0.553 2.846,0.802l0 8.484z"/>
  <path id="5" class="fil0" d="M127.521 9.82l0 18.848 6.827 0c3.896,0 5.554,-2.902 5.554,-5.057 0,-1.603 -0.801,-4.146 -4.449,-4.837 0.746,-0.304 2.791,-1.354 2.791,-4.062 0,-3.814 -3.206,-4.892 -5.997,-4.892l-4.726 0zm4.118 1.824c3.04,0 4.395,0.912 4.395,3.234 0,2.045 -1.244,3.344 -4.395,3.344l-2.045 0 0 -6.578 2.045 0zm1.244 8.402c3.758,0 4.808,1.824 4.808,3.399 0,1.603 -0.69,3.399 -4.753,3.399l-3.344 0 0 -6.798 3.289 0z"/>
  <path id="6" class="fil0" d="M152.366 28.668l0 -12.409 -1.906 0 0 8.789c-1.161,1.962 -2.736,2.183 -3.455,2.183 -2.183,0 -2.985,-1.63 -2.985,-3.731l0 -7.241 -1.907 0 0 7.407c0,3.206 1.659,5.251 4.45,5.251 1.769,0 2.985,-0.912 3.897,-2.128l0 1.879 1.906 0z"/>
  <path id="7" class="fil0" d="M157.866 16.259l-1.907 0 0 12.409 1.907 0 0 -12.409zm-0.94 -5.057c-0.691,0 -1.243,0.553 -1.243,1.244 0,0.691 0.552,1.243 1.243,1.243 0.691,0 1.244,-0.552 1.244,-1.243 0,-0.691 -0.553,-1.244 -1.244,-1.244z"/>
  <polygon id="8" class="fil0" points="163.365,9.82 161.459,9.82 161.459,28.668 163.365,28.668 "/>
  <path id="9" class="fil0" d="M177.543 28.668l0 -18.848 -1.907 0 0 6.937c-0.525,-0.221 -1.631,-0.746 -3.151,-0.746 -3.979,0 -6.162,2.985 -6.162,6.467 0,3.979 2.515,6.19 6.853,6.19l4.367 0zm-1.907 -1.686l-2.432 0c-2.929,0 -4.919,-1.575 -4.919,-4.56 0,-2.487 1.437,-4.726 4.504,-4.726 1.41,0 2.405,0.553 2.847,0.802l0 8.484z"/>
  <path id="10" class="fil0" d="M191.665 22.146c0,-3.62 -2.405,-6.135 -5.472,-6.135 -2.819,0 -5.693,2.1 -5.693,6.411 0,3.344 2.045,6.495 6.19,6.495 2.626,0 4.007,-0.967 4.781,-1.492l0 -1.935c-0.608,0.498 -2.128,1.741 -4.56,1.741 -2.376,0 -4.449,-1.658 -4.449,-4.643l9.203 0 0 -0.442zm-9.092 -0.94c0.469,-2.514 2.128,-3.51 3.675,-3.51 1.354,0 3.178,0.83 3.455,3.51l-7.13 0z"/>
  <path id="11" class="fil0" d="M194.428 16.259l0 12.409 1.907 0 0 -5.361c0,-0.636 0,-1.99 0.442,-2.985 0.581,-1.354 1.935,-2.349 3.04,-2.349 1.078,0 1.99,0.801 2.405,1.161l1.022 -1.659c-0.47,-0.386 -1.768,-1.464 -2.957,-1.464 -0.829,0 -1.63,0.525 -1.879,0.691 -1.023,0.691 -1.741,1.768 -2.073,2.294l0 -2.737 -1.907 0z"/>
  <g id="_1545100112912">
   <path class="fil1 str0" d="M37.805 37.825l-8.957 -3.26c-2.827,1.787 -6.177,2.822 -9.769,2.822 -10.111,0 -18.308,-8.197 -18.308,-18.308 0,-10.111 8.197,-18.308 18.308,-18.308 10.112,0 18.308,8.197 18.308,18.308 0,3.604 -1.041,6.964 -2.839,9.797l3.257 8.949 0 0z"/>
   <g>
    <path class="fil2" d="M22.651 9.064c-0.963,-0.115 -1.958,-0.235 -3.358,-0.17l0 0 0 0c0.05,0.349 0.227,0.721 0.538,1.089l0 0c0.939,-0.402 1.886,-0.713 2.82,-0.919zm1.576 -1.118c-0.648,0.348 -1.253,0.843 -1.576,1.118 0.075,-0.713 0.106,-1.293 0.099,-1.74l0 0c0.518,0.134 1.027,0.347 1.477,0.622zm0.185 0.118c0.299,0.202 0.568,0.433 0.79,0.687 0.205,0.233 0.355,0.469 0.452,0.7l0 0 0 0c-1.162,-0.289 -2.098,-0.338 -3.003,-0.387 0.417,-0.295 1.07,-0.72 1.761,-1zm-1.761 1c1.098,0.073 2.122,0.257 3.06,0.537l0 0 0 0c0.119,0.36 0.109,0.703 -0.021,1.002l0 0 0 0c-1.176,-0.753 -2.123,-1.152 -3.039,-1.539zm2.493 2.826c0.462,-0.187 0.793,-0.466 0.985,-0.802 0.754,0.571 1.444,1.196 2.064,1.862l0 0c-0.316,0.555 -0.863,1.014 -1.625,1.323l0 0c-0.418,-0.83 -0.895,-1.63 -1.424,-2.383zm-0.352 -0.484c-0.645,-0.856 -1.361,-1.645 -2.141,-2.342 1.069,0.462 2.066,1.022 2.978,1.66l0 0c-0.163,0.286 -0.445,0.523 -0.837,0.682zm-0.312 -3.586c-0.53,-0.323 -1.128,-0.574 -1.738,-0.733 -0.018,-0.341 -0.065,-0.586 -0.136,-0.736l0 0c1.005,0.261 1.989,0.673 2.861,1.205 -0.31,0.002 -0.65,0.107 -0.987,0.264zm1.163 -0.254c-0.942,-0.574 -2.003,-1.018 -3.087,-1.3 -0.034,-0.044 -0.071,-0.077 -0.111,-0.091 1.269,0.329 2.465,0.842 3.558,1.506 -0.111,-0.061 -0.232,-0.099 -0.36,-0.115zm0.181 0.218c0.583,0.392 1.108,0.843 1.54,1.337 0.471,0.577 0.578,0.73 0.878,1.358l0 0c-0.626,-0.361 -1.323,-0.66 -2.083,-0.889l0 0c-0.116,-0.272 -0.292,-0.549 -0.532,-0.824l0 0c-0.262,-0.299 -0.578,-0.57 -0.931,-0.807 0.384,-0.13 0.771,-0.204 1.128,-0.175zm0.204 0.028c0.165,0.034 0.32,0.092 0.464,0.181 2.109,1.412 3.792,3.408 4.818,5.758 -0.22,-0.486 -0.502,-0.944 -0.836,-1.37 -0.26,-0.611 -0.647,-1.235 -1.166,-1.854l-0.195 -0.228 0 0c-0.05,-0.057 -0.102,-0.113 -0.155,-0.167 0.56,0.639 0.971,1.286 1.239,1.918l0 0c-0.442,-0.496 -0.963,-0.941 -1.558,-1.328 -0.205,-0.483 -0.519,-0.977 -0.947,-1.466 -1.059,-1.13 -1.658,-1.441 -1.664,-1.444zm-7.353 1.123c0.059,0.41 0.267,0.849 0.633,1.281 -0.801,0.373 -1.594,0.808 -2.367,1.296l0 0c-0.603,-0.714 -0.946,-1.437 -1.044,-2.114 0.902,-0.227 1.832,-0.384 2.778,-0.463zm-3.362 0.62c0.106,0.731 0.476,1.512 1.127,2.283l0 0c-0.763,0.511 -1.503,1.072 -2.208,1.673l0 0c-0.853,-1.009 -1.337,-2.031 -1.475,-2.987 0.811,-0.387 1.668,-0.712 2.556,-0.969zm-5.289 2.641c0.678,-0.526 1.42,-0.999 2.21,-1.412l0 0c0.145,1.001 0.652,2.07 1.543,3.124 -0.689,0.618 -1.341,1.274 -1.942,1.957l0 0c-1.046,-1.239 -1.641,-2.494 -1.811,-3.669zm-0.434 0.351c0.175,1.206 0.785,2.495 1.86,3.767 -0.579,0.693 -1.105,1.412 -1.567,2.144 -1.174,-1.39 -1.842,-2.798 -2.033,-4.117 0.505,-0.645 1.089,-1.245 1.74,-1.794zm-3.779 7.052c0.028,-0.732 0.16,-1.478 0.404,-2.228 0.199,1.375 0.895,2.844 2.12,4.294l0.001 -0.003 -0.001 0.003c-0.247,0.743 -0.4,1.446 -0.465,2.104 -1.189,-1.408 -1.865,-2.835 -2.059,-4.17zm0.577 -2.717c0.289,-0.743 0.675,-1.45 1.144,-2.114 0.194,1.335 0.87,2.762 2.06,4.17l0 0c-0.433,0.738 -0.798,1.488 -1.083,2.239 -1.225,-1.45 -1.921,-2.919 -2.121,-4.295zm-0.58 3.192c0.191,1.318 0.858,2.727 2.033,4.117l0 0c-0.027,0.637 0.033,1.227 0.174,1.762 -0.802,-0.949 -1.346,-1.909 -1.643,-2.836l0.174 0.51 0.107 0.285c0.307,0.784 0.793,1.587 1.466,2.383l0 0 0 0c0.166,0.485 0.402,0.92 0.705,1.3 -1.569,-1.887 -2.627,-4.214 -2.961,-6.769 -0.031,-0.248 -0.05,-0.499 -0.055,-0.752zm-0.045 -0.976c-0.211,-2.857 1.05,-5.879 2.638,-8 -0.66,0.909 -0.974,1.974 -0.921,3.12l0 0 0 0c-0.47,0.654 -0.857,1.355 -1.146,2.098 -0.034,-0.737 0.056,-1.463 0.311,-2.116 -0.359,1.009 -0.476,1.502 -0.485,2.604l0 0 0 0c-0.243,0.752 -0.37,1.553 -0.397,2.294zm4.882 -10.204c-0.78,0.889 -1.157,1.975 -1.103,3.156l0 0 0 0c-0.652,0.53 -1.238,1.114 -1.744,1.748 -0.056,-1.204 0.299,-2.316 1.038,-3.249 0.55,-0.651 1.093,-1.176 1.809,-1.655zm-0.668 2.818c-0.053,-1.15 0.314,-2.207 1.074,-3.074l-0.006 0.004 0.006 -0.004 0 0c0.635,-0.374 1.325,-0.67 2.058,-0.884 -0.647,0.738 -0.959,1.638 -0.914,2.618l0 0c-0.793,0.386 -1.537,0.835 -2.218,1.34zm5.976 -4.371c-0.473,0.539 -0.702,1.197 -0.669,1.913l0 0c-0.892,0.223 -1.751,0.517 -2.565,0.875 -0.044,-0.937 0.256,-1.797 0.874,-2.503 0.751,-0.178 1.542,-0.274 2.36,-0.285zm-0.083 1.778c-0.031,-0.663 0.181,-1.273 0.619,-1.772 0.829,0.027 1.681,0.141 2.545,0.344 -0.266,0.303 -0.394,0.673 -0.376,1.075 -0.949,0.041 -1.883,0.161 -2.788,0.353zm6.781 -0.055c-1.12,-0.236 -2.246,-0.298 -3.372,-0.314 -0.016,-0.342 0.093,-0.656 0.319,-0.913l0 0c1.014,0.283 2.038,0.691 3.053,1.227zm0 0c-0.887,0.258 -1.788,0.621 -2.684,1.071l0 0c0.34,0.357 0.772,0.664 1.25,0.905 0.496,-0.74 0.979,-1.405 1.434,-1.976zm-0.405 12.768c-0.163,0.906 -0.351,1.798 -0.561,2.659 -1.962,-0.262 -3.956,-0.84 -5.804,-1.678 0.334,-0.825 0.688,-1.668 1.056,-2.516 1.69,0.767 3.514,1.296 5.309,1.535zm-1.601 6.126c-0.269,0.731 -0.545,1.372 -0.822,1.921 -1.987,-0.265 -4.006,-0.851 -5.878,-1.699 0.173,-0.579 0.388,-1.238 0.646,-1.972 1.928,0.874 4.007,1.477 6.054,1.75zm-5.88 -2.238c0.274,-0.76 0.577,-1.555 0.901,-2.371 1.872,0.848 3.891,1.434 5.879,1.698 -0.221,0.847 -0.463,1.66 -0.726,2.422 -2.047,-0.273 -4.127,-0.876 -6.054,-1.749zm3.563 -8.507c1.402,0.635 2.915,1.074 4.404,1.273 -0.102,0.918 -0.23,1.841 -0.383,2.753 -1.748,-0.233 -3.524,-0.748 -5.17,-1.494 0.373,-0.848 0.758,-1.697 1.149,-2.532l0 0zm1.438 -2.961c1.024,0.465 2.129,0.785 3.217,0.93 -0.035,0.883 -0.098,1.79 -0.189,2.706 -1.423,-0.19 -2.87,-0.61 -4.21,-1.217 0.392,-0.828 0.788,-1.639 1.182,-2.419zm0.255 -0.503c0.392,-0.765 0.779,-1.496 1.154,-2.177l0 0c0.575,0.261 1.196,0.441 1.807,0.523 0.037,0.8 0.042,1.644 0.02,2.515 -1.008,-0.134 -2.032,-0.431 -2.981,-0.861zm2.933 -2.169c-0.519,-0.069 -1.047,-0.222 -1.536,-0.444l0 0 0 0c0.432,-0.77 0.847,-1.468 1.233,-2.072 0.145,0.757 0.245,1.604 0.303,2.516zm-4.142 19.892c-1.795,-0.239 -3.62,-0.768 -5.31,-1.535 0.07,-0.382 0.182,-0.847 0.337,-1.391l0 0c1.847,0.838 3.841,1.416 5.803,1.677l0 0c-0.277,0.509 -0.556,0.926 -0.83,1.249zm-1.224 0.811c-0.102,0.021 -0.126,0.027 -0.225,0.018 -1.342,-0.173 -2.621,-0.546 -3.807,-1.087 -0.044,-0.027 -0.078,-0.078 -0.102,-0.148 1.341,0.608 2.711,1.027 4.134,1.217zm-4.126 -2.108c1.646,0.746 3.423,1.262 5.171,1.495l0 0c-0.273,0.282 -0.541,0.471 -0.8,0.565 -1.489,-0.198 -3.002,-0.637 -4.404,-1.273 -0.03,-0.177 -0.019,-0.44 0.033,-0.787zm6.006 -19.78c0.4,0.42 0.909,0.781 1.47,1.064 -0.429,0.656 -0.868,1.361 -1.307,2.103 -0.927,-0.466 -1.766,-1.062 -2.426,-1.756 0.74,-0.524 1.498,-0.999 2.263,-1.411zm-2.743 1.76c0.713,0.749 1.619,1.392 2.619,1.896 -0.44,0.757 -0.88,1.547 -1.312,2.356 -1.309,-0.659 -2.494,-1.5 -3.427,-2.481 0.678,-0.631 1.389,-1.224 2.12,-1.771zm-2.558 2.188c0.976,1.025 2.215,1.905 3.584,2.594 -0.429,0.817 -0.848,1.649 -1.25,2.484 -1.607,-0.81 -3.062,-1.842 -4.208,-3.046 0.582,-0.705 1.21,-1.385 1.874,-2.032zm-2.247 2.494c1.176,1.237 2.671,2.297 4.321,3.128 -0.395,0.834 -0.77,1.667 -1.12,2.485 -1.804,-0.909 -3.438,-2.068 -4.724,-3.419 0.451,-0.745 0.962,-1.48 1.523,-2.194l0 0zm-1.808 2.681c1.303,1.369 2.957,2.542 4.784,3.462 -0.338,0.81 -0.649,1.602 -0.924,2.36 -1.882,-0.947 -3.585,-2.156 -4.927,-3.566 0.285,-0.752 0.644,-1.508 1.067,-2.256zm-1.241 2.745c1.341,1.409 3.045,2.618 4.927,3.566l0 0c-0.257,0.735 -0.464,1.397 -0.623,1.982 -1.827,-0.92 -3.482,-2.094 -4.784,-3.462 0.074,-0.647 0.232,-1.345 0.48,-2.086zm-0.294 4.542c1.145,1.204 2.601,2.237 4.208,3.046l0 0c-0.024,0.36 -0.001,0.64 0.067,0.836 -1.369,-0.69 -2.608,-1.569 -3.584,-2.595 0.048,0.059 0.099,0.116 0.15,0.171l0.23 0.236c0.905,0.904 2.025,1.684 3.255,2.303l0 0c0.04,0.063 0.115,0.132 0.172,0.181 -1.44,-0.728 -2.73,-1.71 -3.812,-2.886l0.005 -0.005c-0.303,-0.365 -0.535,-0.796 -0.691,-1.287zm-0.091 -0.328c-0.123,-0.515 -0.169,-1.088 -0.131,-1.713l0 0c1.286,1.351 2.919,2.51 4.723,3.418l0 0c-0.138,0.553 -0.228,1.028 -0.271,1.423 -1.651,-0.831 -3.145,-1.891 -4.321,-3.128zm17.714 -15.532c0.153,-0.351 0.165,-0.755 0.025,-1.178 0.776,0.27 1.487,0.607 2.127,1.004l0 0c0.23,0.698 0.211,1.364 -0.041,1.944l0 0c-0.634,-0.638 -1.34,-1.232 -2.111,-1.77zm2.514 2.19c0.272,-0.625 0.292,-1.344 0.044,-2.098 0.608,0.422 1.142,0.9 1.595,1.426l0 0c0.324,0.986 0.298,1.928 -0.058,2.746l0 0c-0.449,-0.723 -0.978,-1.418 -1.581,-2.074zm2.99 5.32c0.442,-1.018 0.481,-2.187 0.089,-3.412l-0.036 -0.11c-0.036,-0.11 -0.074,-0.219 -0.116,-0.327 0.028,0.071 0.056,0.142 0.081,0.214 0.422,1.251 0.664,2.585 0.693,3.971 0,-0.02 -0.001,-0.04 -0.001,-0.061l-0.004 0.806 0 0c-0.021,0.623 -0.154,1.218 -0.395,1.772l0 0c-0.035,0.781 -0.169,1.555 -0.413,2.31 -0.027,0.082 -0.055,0.164 -0.084,0.246 -0.029,0.082 -0.059,0.163 -0.09,0.243 -0.033,0.084 -0.062,0.168 -0.096,0.251 0.699,-1.619 1.087,-3.404 1.087,-5.279 0,-0.085 -0.002,-0.169 -0.004,-0.253 0.007,0.696 -0.126,1.36 -0.392,1.973l0 0c-0.01,-0.782 -0.119,-1.568 -0.319,-2.344zm-0.144 -0.505c-0.241,-0.772 -0.571,-1.531 -0.984,-2.266 0.372,-0.855 0.4,-1.84 0.06,-2.871 0.417,0.546 0.751,1.137 0.995,1.765l0 0.001c0.398,1.21 0.365,2.366 -0.071,3.371zm-6.74 13.133c0.245,-0.099 0.477,-0.207 0.697,-0.324 -0.418,0.231 -0.849,0.439 -1.293,0.625 0.203,-0.088 0.402,-0.189 0.596,-0.301zm0.345 -0.213c0.519,-0.346 0.997,-0.782 1.422,-1.304 1.011,-0.41 1.828,-0.957 2.44,-1.605 -0.793,0.887 -1.703,1.668 -2.706,2.317l-0.641 0.39c0.17,-0.097 0.338,-0.198 0.503,-0.303 -0.311,0.187 -0.65,0.356 -1.018,0.505zm2.668 -13.46c-0.272,-0.881 -0.607,-1.75 -1,-2.593 0.822,-0.333 1.412,-0.828 1.753,-1.427 0.589,0.684 1.105,1.405 1.542,2.152l0 0.001c-0.447,0.782 -1.219,1.431 -2.295,1.867zm0.168 0.577c1.125,-0.457 1.933,-1.135 2.4,-1.954 0.402,0.758 0.722,1.537 0.954,2.326l0 0c-0.549,0.962 -1.497,1.758 -2.819,2.294 -0.111,-0.887 -0.291,-1.781 -0.535,-2.666zm0.598 3.243c1.357,-0.549 2.331,-1.368 2.894,-2.355 0.193,0.793 0.295,1.591 0.299,2.384l0.001 0 -0.001 0c-0.615,1.079 -1.68,1.973 -3.162,2.574 0.062,-0.847 0.051,-1.72 -0.031,-2.603zm-0.021 3.151c1.502,-0.608 2.58,-1.514 3.203,-2.607 -0.038,0.789 -0.175,1.568 -0.42,2.324l0 0 -0.001 0.003 0.001 -0.003c-0.642,1.125 -1.752,2.058 -3.299,2.685 0.251,-0.761 0.421,-1.567 0.516,-2.402zm-0.69 2.89c1.547,-0.627 2.657,-1.559 3.299,-2.685 -0.135,0.348 -0.286,0.677 -0.46,0.995 -0.321,0.573 -0.683,1.12 -1.082,1.637l-0.369 0.457c0.109,-0.129 0.216,-0.26 0.32,-0.393 -0.642,0.791 -1.56,1.452 -2.739,1.93 0.402,-0.56 0.749,-1.208 1.031,-1.941zm-17.772 -18.058c0.467,-0.426 0.965,-0.818 1.489,-1.174 -0.221,0.156 -0.425,0.321 -0.612,0.496l-0.877 0.678zm1.274 -0.924c0.318,-0.297 0.688,-0.567 1.109,-0.805 -0.232,0.131 -0.458,0.27 -0.68,0.414l0.699 -0.425c1.275,-0.722 2.68,-1.241 4.171,-1.511 0.074,-0.011 0.15,-0.018 0.219,-0.026 -0.248,0.028 -0.499,0.081 -0.743,0.139 -1.177,0.282 -2.105,0.762 -2.767,1.381l-2.008 0.833zm6.077 -2.445c0.53,-0.064 1.07,-0.097 1.616,-0.097 0.974,0 1.923,0.105 2.837,0.303 0.065,0.018 0.125,0.056 0.182,0.108 -1.09,-0.236 -2.188,-0.306 -3.197,-0.175l0 0c-0.468,-0.134 -0.953,-0.189 -1.438,-0.139zm1.756 0.245c0.935,-0.121 1.953,-0.057 2.963,0.162l0 0 0 0c0.124,0.162 0.225,0.421 0.302,0.776 -0.613,-0.133 -1.23,-0.172 -1.797,-0.098l0 0 0 0c-0.485,-0.378 -0.977,-0.657 -1.468,-0.84zm3.428 2.975c-0.528,-0.76 -1.08,-1.385 -1.644,-1.875 0.482,-0.063 1.006,-0.03 1.527,0.083l0 0 0 0c0.076,0.464 0.117,1.061 0.117,1.792zm0 0c-0.98,-0.572 -1.971,-1.014 -2.953,-1.331 0.231,-0.216 0.555,-0.383 0.966,-0.482 0.048,-0.011 0.096,-0.022 0.145,-0.031 0.627,0.481 1.246,1.095 1.842,1.844zm-2.363 -2.061c-0.483,0.115 -0.864,0.312 -1.136,0.566 -0.836,-0.231 -1.663,-0.372 -2.468,-0.424 0.449,-0.419 1.077,-0.744 1.873,-0.935 0.093,-0.022 0.187,-0.042 0.282,-0.06 0.538,0.175 1.081,0.447 1.619,0.816 0,0.003 -0.156,0.033 -0.17,0.037zm-1.799 -0.954c-0.102,0.02 -0.204,0.042 -0.304,0.066 -0.859,0.206 -1.537,0.556 -2.021,1.009l0 0c-0.794,-0.014 -1.563,0.059 -2.295,0.217 0.634,-0.592 1.521,-1.051 2.646,-1.32 0.132,-0.032 0.264,-0.06 0.399,-0.086l1.575 0.114zm3.079 26.131c-0.983,0.186 -2.036,0.219 -3.117,0.124 0.299,-0.09 0.603,-0.275 0.907,-0.554l0 0c1.456,0.128 2.876,0.053 4.168,-0.257 0.251,-0.059 0.491,-0.127 0.722,-0.202 -0.302,0.176 -0.616,0.324 -0.94,0.437 -0.565,0.188 -1.145,0.339 -1.74,0.452zm3.01 -1.097c-0.238,0.077 -0.485,0.147 -0.742,0.208 -1.327,0.318 -2.785,0.395 -4.28,0.264 0.304,-0.321 0.606,-0.735 0.901,-1.241l0 0c1.633,0.144 3.227,0.059 4.678,-0.288 0.281,-0.068 0.551,-0.143 0.811,-0.227 -0.412,0.517 -0.872,0.946 -1.368,1.284zm1.629 -1.635c-0.263,0.085 -0.536,0.162 -0.821,0.23 -1.469,0.352 -3.084,0.438 -4.738,0.292 0.292,-0.547 0.575,-1.187 0.846,-1.918l0 0c1.704,0.15 3.367,0.062 4.88,-0.301 0.293,-0.07 0.575,-0.149 0.845,-0.237 -0.281,0.733 -0.622,1.378 -1.012,1.934zm0.34 -2.185c-1.512,0.362 -3.175,0.45 -4.879,0.3 0.261,-0.762 0.496,-1.576 0.701,-2.424 1.654,0.146 3.269,0.06 4.738,-0.292 0.285,-0.068 0.559,-0.144 0.821,-0.23 -0.107,0.84 -0.283,1.647 -0.535,2.409 0,0.016 -0.773,0.22 -0.846,0.237zm0.63 -2.97c-1.45,0.347 -3.044,0.432 -4.678,0.288 0.193,-0.863 0.357,-1.757 0.492,-2.666l0 0c1.494,0.131 2.953,0.054 4.28,-0.264 0.257,-0.061 0.504,-0.131 0.741,-0.208 0.059,0.892 0.052,1.771 -0.024,2.623 0,0.016 -0.741,0.21 -0.811,0.227zm0.066 -3.23c-1.292,0.309 -2.713,0.385 -4.168,0.256 0.122,-0.915 0.213,-1.842 0.275,-2.765l0 0c1.239,0.109 2.448,0.046 3.549,-0.218 0.213,-0.051 0.418,-0.109 0.615,-0.172 0.213,0.897 0.364,1.801 0.451,2.697 0,0.014 -0.66,0.187 -0.722,0.202zm-0.464 -3.319c-1.052,0.252 -2.209,0.314 -3.394,0.209 0.048,-0.92 0.065,-1.832 0.049,-2.721 0.906,0.08 1.79,0.033 2.594,-0.159 0.156,-0.038 0.306,-0.08 0.449,-0.126 0.354,0.856 0.652,1.739 0.89,2.633 0,0.011 -0.537,0.152 -0.588,0.164zm-3.544 -5.621c0.509,0.045 1.006,0.018 1.457,-0.09 0.087,-0.021 0.172,-0.044 0.253,-0.07 0.483,0.769 0.916,1.585 1.294,2.429 0.002,0.008 -0.382,0.109 -0.417,0.117 -0.744,0.178 -1.563,0.222 -2.402,0.148l0 0c-0.029,-0.878 -0.09,-1.728 -0.185,-2.534zm-0.066 -0.52c-0.127,-0.919 -0.299,-1.774 -0.518,-2.539 0.721,0.718 1.38,1.528 1.971,2.403l0 0c-0.069,0.023 -0.14,0.043 -0.214,0.06 -0.384,0.092 -0.806,0.115 -1.239,0.076zm-4.913 20.745c0.659,0.059 1.308,0.066 1.936,0.017 -0.365,0.03 -0.735,0.046 -1.109,0.046 -0.375,0 -0.746,-0.016 -1.113,-0.047 0.094,0.005 0.19,0 0.286,-0.016l0 0zm13.346 -8.73c-0.027,0.082 -0.055,0.164 -0.084,0.246 -0.029,0.082 -0.059,0.163 -0.09,0.243 0.049,-0.115 0.247,-0.657 0.174,-0.489zm-2.489 -13.319c-0.178,-0.191 -0.411,-0.451 -0.595,-0.637l0.44 0.47c0.053,0.054 0.105,0.11 0.155,0.167z"/>
   </g>
  </g>
 </g>
</svg>
