<svg xmlns="http://www.w3.org/2000/svg" width="316.57" height="225.41" viewBox="0 0 21900.15 15593.06"
     shape-rendering="geometricPrecision" image-rendering="optimizeQuality" fill-rule="evenodd"><style>.E{stroke-miterlimit:22.9256}  .F{fill:none}  .G{fill:#206eb5}  .H{stroke:#206eb5}  .I{stroke-width:553.46}</style><path d="M2867.36 11966.25l415.96 559.58-250.58 170.74-646.81-870.08-862.47 1160.29 3227.44 2.2-1322.41-1777.56z" class="G"/><path d="M6250.35 11565.85H9850.6m-3600.25 1092.73H9850.6" class="E F H I"/><path d="M2867.36 7399.82l415.96 559.58-250.58 170.75-646.81-870.06-862.47 1160.27 3227.44 2.22-1322.41-1777.56z" class="G"/><path d="M6250.35 6999.42H9850.6M6250.35 8092.15H9850.6" class="E F H I"/><path d="M2867.36 2833.45L3283.32 3393l-250.58 170.77-646.81-870.08-862.47 1160.27 3227.44 2.22-1322.41-1777.56z" class="G"/><path d="M6250.35 2433.03H9850.6M6250.35 3525.76H9850.6" class="E F H I"/><path d="M13427.29 11966.25l415.96 559.58-250.58 170.74-646.81-870.08-862.47 1160.29 3227.44 2.2-1322.41-1777.56z" class="G"/><path d="M16810.28 11565.85h3600.25m-3600.25 1092.73h3600.25" class="E F H I"/><path d="M13427.29 7399.82l415.96 559.58-250.58 170.75-646.81-870.06-862.47 1160.27 3227.44 2.22-1322.41-1777.56z" class="G"/><path d="M16810.28 6999.42h3600.25m-3600.25 1092.73h3600.25" class="E F H I"/><path d="M13427.29 2833.45l415.96 559.55-250.58 170.77-646.81-870.08-862.47 1160.27 3227.44 2.22-1322.41-1777.56z" class="G"/><path d="M16810.28 2433.03h3600.25m-3600.25 1092.73h3600.25" class="E F H I"/><path d="M184.5 184.5h21531.16v15224.07H184.5z" stroke="#6b6b6b" stroke-width="368.97" class="E F"/></svg>
