<svg xmlns="http://www.w3.org/2000/svg" xmlns:xlink="http://www.w3.org/1999/xlink" width="225.41" height="316.57" viewBox="0 0 15388.05 21612.22" shape-rendering="geometricPrecision" image-rendering="optimizeQuality" fill-rule="evenodd" xmlns:v="https://vecta.io/nano"><style><![CDATA[.E{stroke-width:364.12}.F{stroke-miterlimit:22.9256}.G{fill:none}.H{fill:#206eb5}.I{stroke:#206eb5}]]></style><path d="M182.07 182.06h15023.91v21248.1H182.07z" stroke="#6b6b6b" class="E F G"/><use xlink:href="#B" class="H"/><path d="M1637.22 4452.9h3470.29" class="E F G I"/><use xlink:href="#B" x="8643.32" class="H"/><path d="M10280.54 4452.9h3470.29" class="E F G I"/><use xlink:href="#B" x="4321.66" class="H"/><path d="M5958.88 4452.9h3470.29" class="E F G I"/><use xlink:href="#C" class="H"/><path d="M10280.54 9626.93h3470.29" class="E F G I"/><use xlink:href="#C" x="-4321.66" class="H"/><path d="M5958.88 9626.93h3470.29" class="E F G I"/><use xlink:href="#C" x="-8643.32" class="H"/><path d="M1637.22 9626.93h3470.29" class="E F G I"/><use xlink:href="#B" x="8643.32" y="10348.07" class="H"/><path d="M10280.54 14800.97h3470.29" class="E F G I"/><use xlink:href="#B" x="4321.66" y="10348.07" class="H"/><path d="M5958.88 14800.97h3470.29" class="E F G I"/><use xlink:href="#B" y="10348.07" class="H"/><path d="M1637.22 14800.97h3470.29" class="E F G I"/><use xlink:href="#D" class="H"/><path d="M10280.54 19975h3470.29" class="E F G I"/><use xlink:href="#D" x="-4321.66" class="H"/><path d="M5958.88 19975h3470.29" class="E F G I"/><use xlink:href="#D" x="-8643.32" class="H"/><path d="M1637.22 19975h3470.29" class="E F G I"/><defs ><path id="B" d="M3112.27 2364.78l400.96 539.4-241.52 164.58-623.47-838.67-831.35 1118.38 3110.95 2.14-1274.68-1713.39z"/><path id="C" d="M11755.59 7538.82l400.96 539.4-241.52 164.58-623.47-838.68-831.35 1118.39 3110.95 2.14-1274.68-1713.39z"/><path id="D" d="M11755.59 17886.89l400.96 539.4-241.52 164.57-623.47-838.67-831.35 1118.39 3110.95 2.14-1274.68-1713.39z"/></defs></svg>