<svg xmlns="http://www.w3.org/2000/svg" width="1920" height="1200" shape-rendering="geometricPrecision"
     image-rendering="optimizeQuality" fill-rule="evenodd"><path d="M647.27 485.65c-14.4-6.1-30.32-12.65-51.7-12.65-48.2 0-80.04 34.46-80.04 76.56 0 39.92 29.88 76.12 80.26 76.12 19.41 0 36.65-4.58 54.53-12.43v-59.98h-46.46v14.39h30.1V603c-5.23 1.96-20.72 8.29-39.69 8.29-29.45 0-61.29-21.38-61.29-61.95 0-34.24 25.73-61.51 61.5-61.51 5.67 0 28.79.44 52.79 15.27v-17.45zm39.04-10.68h-15.05v148.75h15.05zm67.61 48.85c-28.13 0-50.82 22.69-50.82 50.82 0 28.14 22.69 51.04 50.82 51.04 28.14 0 51.04-22.9 51.04-51.04 0-28.13-22.9-50.82-51.04-50.82zm.22 13.31c20.51 0 35.34 16.79 35.34 37.51s-14.83 37.74-35.34 37.74c-20.5 0-35.55-17.02-35.55-37.74s15.05-37.51 35.55-37.51zm67.84 81.14c11.34 4.79 23.77 7.41 36.2 7.41 32.5 0 52.79-21.16 52.79-53.22 0-25.08-15.49-48.64-42.97-48.64-16.14 0-26.18 8.73-30.97 12.44v-61.29h-15.05v143.3zm15.05-66.75c9.81-10.68 20.72-14.39 27.91-14.39 17.02 0 30.54 15.7 30.54 36.64 0 22.25-15.49 38.61-35.99 38.61-1.96 0-11.34 0-22.46-3.93v-56.93zm169.69 54.97c-5.89 4.8-10.69 6.98-12.65 6.98-2.18 0-2.62-1.09-2.62-5.24v-53.87c0-11.02-5.23-30.54-33.15-30.54-15.93 0-27.05 7.86-31.85 12v15.49c8.51-7.75 17.67-14.18 30.54-14.18 18.32 0 19.41 12.43 19.41 18.76v8.76c-40.57 7.23-53.66 20.14-53.66 36.13 0 14.43 11.57 24.9 25.31 24.9 8.72 0 16.35-1.96 28.57-11.12.87 4.58 2.62 11.12 10.69 11.12 2.61 0 7.19-.22 19.41-8.94v-10.25zm-30.32-2.22c-3.71 3.53-11.56 10.51-22.03 10.51-5.67 0-16.58-3.27-16.58-15.09 0-12.29 13.53-20.58 38.61-25.19v29.77zm55.4-129.3h-15.05v148.75h15.05zm155.08 7.85c-5.89-3.49-17.01-9.82-33.59-9.82-24.86 0-44.06 16.14-44.06 39.48 0 16.58 9.16 29.01 34.24 40.79 30.54 14.39 33.38 23.34 33.38 32.72 0 8.94-6.77 24.86-27.7 24.86-16.58 0-30.76-10.91-38.61-18.76v20.07c11.56 8.07 25.08 13.52 39.04 13.52 19.41 0 43.41-12.65 43.41-40.79 0-22.03-10.47-30.53-39.48-44.93-13.09-6.54-28.14-14.17-28.14-29.22 0-5.46 4.15-22.91 27.7-22.91 15.05 0 27.05 8.51 33.81 13.53v-18.54zm98.59 42.97h-16.36l-29.45 61.72-31.19-61.72h-16.36l39.7 77.86-33.81 70.24h16.14zm23.12 0h-15.05v97.93h15.05v-69.8c6.54-9.16 14.17-16.79 26.17-16.79 15.49 0 22.47 10.25 22.47 28.35v58.24h15.05V554.8c7.19-12.22 18.54-17.67 27.48-17.67 17.66 0 21.15 16.79 21.15 27.92v58.67h15.05v-58.67c0-16.8-6.1-41.23-33.59-41.23-8.06 0-20.5 2.4-33.37 20.51-2.83-6.55-11.34-20.51-29.88-20.51-13.52 0-21.59 6.55-30.53 17.02v-15.05zm147.22 92.48c11.34 4.79 23.78 7.41 36.21 7.41 32.5 0 52.78-21.16 52.78-53.22 0-25.08-15.48-48.64-42.96-48.64-16.15 0-26.18 8.73-30.98 12.44v-61.29h-15.05v143.3zm15.05-66.75c9.82-10.68 20.72-14.39 27.92-14.39 17.01 0 30.54 15.7 30.54 36.64 0 22.25-15.49 38.61-35.99 38.61-1.96 0-11.34 0-22.47-3.93v-56.93zm136.54-27.7c-28.13 0-50.82 22.69-50.82 50.82 0 28.14 22.69 51.04 50.82 51.04 28.14 0 51.04-22.9 51.04-51.04 0-28.13-22.9-50.82-51.04-50.82zm.22 13.31c20.5 0 35.33 16.79 35.33 37.51s-14.83 37.74-35.33 37.74-35.55-17.02-35.55-37.74 15.05-37.51 35.55-37.51zm82.88-62.16h-15.05v148.75h15.05zm77.21 57.14c-5.01-2.83-14.39-8.29-27.91-8.29-21.6 0-31.41 14.4-31.41 26.4 0 16.35 13.74 23.33 25.74 29 12.86 6.11 21.81 10.69 21.81 20.07 0 8.29-8.95 13.09-16.58 13.09-5.23 0-15.49-1.31-31.63-11.13v15.49c10.26 5.45 19.85 8.94 31.41 8.94 24.43 0 32.28-17.67 32.28-27.48 0-15.27-12.65-22.25-17.88-25.08-23.34-12.22-30.1-15.49-30.1-23.34 0-6.76 6.54-12.65 16.57-12.65 9.6 0 18.11 4.14 27.7 10.03v-15.05z" fill="#206eb5" fill-rule="nonzero"/><path d="M424.56 690.49l-66.75-24.3c-21.07 13.32-46.03 21.04-72.8 21.04-75.35 0-136.44-61.09-136.44-136.44 0-75.36 61.09-136.44 136.44-136.44s136.44 61.08 136.44 136.44c0 26.85-7.76 51.9-21.16 73.01l24.27 66.69z" stroke="#206eb5" stroke-width="11.49" stroke-linejoin="round" stroke-miterlimit="22.9256" fill="#cdeafb"/><g fill-rule="nonzero"><path d="M311.63 476.15c-7.17-.86-14.59-1.74-25.03-1.27h0c.38 2.6 1.7 5.38 4.01 8.12h0c7-2.99 14.06-5.32 21.02-6.85zm11.75-8.33c-4.83 2.59-9.34 6.28-11.75 8.33.56-5.31.79-9.63.74-12.97h0c3.86 1.01 7.65 2.59 11.01 4.64zm1.37.88c2.23 1.51 4.23 3.22 5.89 5.12 1.52 1.74 2.64 3.49 3.37 5.21h0c-8.66-2.15-15.63-2.52-22.38-2.88 3.11-2.19 7.98-5.36 13.12-7.45zm-13.12 7.45c8.18.55 15.81 1.92 22.8 4h.01c.88 2.68.8 5.24-.16 7.47h0c-8.77-5.61-15.82-8.58-22.65-11.47zm18.58 21.06c3.44-1.39 5.91-3.47 7.34-5.97a119.66 119.66 0 0 1 15.38 13.87h0c-2.36 4.13-6.43 7.56-12.11 9.86h0c-3.12-6.19-6.67-12.14-10.61-17.76zm-2.63-3.61c-4.8-6.38-10.14-12.25-15.95-17.45 7.97 3.44 15.39 7.62 22.19 12.38h0c-1.21 2.12-3.31 3.89-6.24 5.07zm-2.32-26.72c-3.95-2.41-8.41-4.28-12.95-5.46-.14-2.54-.48-4.37-1.02-5.49h0c7.49 1.95 14.83 5.02 21.33 8.98-2.31.02-4.85.8-7.36 1.97zm8.67-1.89c-7.02-4.28-14.93-7.59-23.01-9.69-.25-.33-.52-.57-.83-.68a98.86 98.86 0 0 1 26.52 11.23c-.83-.46-1.73-.74-2.68-.86zm1.35 1.62c4.34 2.92 8.25 6.28 11.48 9.96 3.5 4.3 4.3 5.44 6.53 10.12h0c-4.66-2.68-9.85-4.91-15.52-6.62h0c-.86-2.02-2.17-4.09-3.96-6.13h0c-1.95-2.23-4.31-4.26-6.94-6.03 2.86-.96 5.75-1.51 8.41-1.3zm1.52.21c1.22.25 2.38.69 3.46 1.35 15.71 10.52 28.26 25.4 35.9 42.91-1.64-3.62-3.74-7.04-6.23-10.21-1.94-4.55-4.82-9.2-8.69-13.82l-1.45-1.69a34.3 34.3 0 0 0-1.16-1.25c4.17 4.77 7.24 9.58 9.24 14.3h0c-3.29-3.7-7.18-7.02-11.61-9.9-1.53-3.6-3.87-7.29-7.06-10.93-7.89-8.42-12.36-10.74-12.4-10.76zm-54.8 8.37c.44 3.06 1.99 6.33 4.71 9.55-5.97 2.77-11.87 6.02-17.63 9.66h0c-4.5-5.32-7.05-10.71-7.78-15.76a129.06 129.06 0 0 1 20.7-3.45zm-25.05 4.62c.79 5.45 3.54 11.27 8.4 17.01h0c-5.69 3.81-11.21 7.99-16.46 12.47h0c-6.35-7.52-9.96-15.13-10.99-22.26 6.04-2.88 12.42-5.3 19.05-7.22zm-39.42 19.69c5.06-3.92 10.58-7.45 16.47-10.53h0c1.08 7.46 4.86 15.42 11.5 23.28a174.53 174.53 0 0 0-14.47 14.58h0c-7.8-9.23-12.23-18.58-13.5-27.33zm-3.23 2.61c1.3 8.99 5.85 18.59 13.86 28.07-4.32 5.17-8.24 10.52-11.68 15.98-8.75-10.36-13.72-20.86-15.15-30.68 3.76-4.81 8.12-9.28 12.97-13.37zm-28.16 52.55c.21-5.45 1.19-11.01 3-16.6 1.49 10.25 6.67 21.2 15.8 32l.01-.03-.01.03c-1.84 5.54-2.98 10.78-3.46 15.68-8.86-10.5-13.9-21.13-15.34-31.08zm4.3-20.24c2.15-5.54 5.03-10.81 8.52-15.76 1.45 9.95 6.48 20.58 15.35 31.07h0c-3.22 5.51-5.94 11.09-8.07 16.69-9.13-10.81-14.32-21.75-15.8-32zm-4.33 23.78c1.42 9.83 6.4 20.32 15.15 30.68h0c-.2 4.75.25 9.14 1.3 13.14-5.98-7.08-10.03-14.23-12.24-21.14l1.29 3.8.8 2.12c2.29 5.84 5.91 11.83 10.92 17.76h0c1.24 3.62 3 6.86 5.26 9.69-11.7-14.07-19.58-31.41-22.07-50.44a55.27 55.27 0 0 1-.41-5.61zm-.34-7.27c-1.57-21.29 7.83-43.81 19.66-59.62-4.91 6.78-7.26 14.71-6.86 23.25h0c-3.5 4.88-6.38 10.1-8.54 15.63-.25-5.48.42-10.9 2.32-15.76-2.68 7.52-3.55 11.19-3.62 19.41h0c-1.81 5.6-2.75 11.56-2.96 17.09zm36.39-76.05c-5.82 6.63-8.63 14.72-8.22 23.53h0c-4.86 3.94-9.23 8.3-13 13.02-.41-8.97 2.23-17.26 7.73-24.21 4.1-4.85 8.15-8.77 13.49-12.34zm-4.98 21.01c-.39-8.58 2.34-16.45 8-22.91l-.04.03.04-.03c4.74-2.79 9.88-4.99 15.34-6.59-4.82 5.5-7.15 12.21-6.81 19.51h0c-5.91 2.88-11.46 6.22-16.53 9.99zm44.53-32.58c-3.52 4.02-5.23 8.92-4.98 14.26h0c-6.64 1.66-13.05 3.85-19.12 6.52-.32-6.98 1.91-13.39 6.52-18.65 5.6-1.33 11.49-2.05 17.58-2.13zm-.61 13.25c-.23-4.94 1.34-9.48 4.61-13.2 6.17.2 12.53 1.05 18.96 2.56-1.98 2.26-2.93 5.01-2.79 8.01-7.08.31-14.04 1.2-20.78 2.63zm50.53-.41c-8.35-1.76-16.74-2.22-25.13-2.34-.12-2.55.69-4.89 2.38-6.8h0c7.55 2.11 15.19 5.15 22.75 9.14zm0 0c-6.61 1.92-13.33 4.63-20 7.98h0c2.53 2.67 5.75 4.95 9.31 6.75 3.7-5.51 7.3-10.48 10.69-14.73zm-3.02 95.15c-1.21 6.76-2.61 13.4-4.18 19.82-14.62-1.95-29.48-6.26-43.25-12.51l7.87-18.74c12.6 5.71 26.19 9.65 39.56 11.43zm-11.93 45.65c-2.01 5.45-4.06 10.23-6.12 14.32-14.81-1.97-29.86-6.34-43.81-12.66 1.29-4.32 2.89-9.22 4.82-14.7 14.36 6.51 29.86 11.01 45.11 13.04zm-43.82-16.68c2.04-5.65 4.3-11.58 6.72-17.66 13.95 6.32 28.99 10.69 43.81 12.66-1.65 6.31-3.45 12.36-5.41 18.04-15.26-2.03-30.75-6.53-45.12-13.04zm26.55-63.39c10.45 4.74 21.73 8.01 32.82 9.49-.76 6.84-1.71 13.72-2.85 20.51-13.03-1.73-26.26-5.57-38.53-11.13l8.56-18.87zm10.72-22.06c7.63 3.46 15.87 5.85 23.97 6.93-.26 6.57-.73 13.34-1.4 20.16-10.61-1.41-21.39-4.54-31.38-9.07l8.81-18.02zm1.9-3.75c2.92-5.71 5.8-11.15 8.6-16.22h0c4.29 1.94 8.91 3.28 13.47 3.89.27 5.96.31 12.25.14 18.75-7.51-1-15.14-3.22-22.21-6.42zm21.86-16.17c-3.87-.51-7.8-1.66-11.45-3.31h0c3.22-5.74 6.32-10.94 9.19-15.44 1.08 5.65 1.83 11.96 2.26 18.75zm-30.87 148.24c-13.38-1.78-26.97-5.72-39.57-11.43.52-2.85 1.36-6.32 2.51-10.37h0c13.77 6.24 28.63 10.55 43.25 12.5h0c-2.07 3.79-4.15 6.89-6.19 9.3zm-9.12 6.05c-.76.16-.94.2-1.67.13a98.77 98.77 0 0 1-28.38-8.1c-.33-.2-.58-.58-.76-1.1 10 4.53 20.2 7.66 30.81 9.07zm-30.75-15.71c12.27 5.56 25.51 9.4 38.54 11.13h0c-2.04 2.11-4.04 3.52-5.97 4.22-11.09-1.48-22.37-4.75-32.81-9.49-.23-1.32-.15-3.28.24-5.86zm44.76-147.41c2.98 3.14 6.77 5.82 10.96 7.93-3.2 4.89-6.47 10.14-9.75 15.67-6.9-3.47-13.16-7.91-18.08-13.08 5.52-3.91 11.17-7.44 16.87-10.52zm-20.44 13.12c5.31 5.58 12.06 10.37 19.51 14.12-3.28 5.65-6.55 11.53-9.78 17.56-9.75-4.91-18.58-11.18-25.53-18.48a191.09 191.09 0 0 1 15.8-13.2zm-19.06 16.3c7.27 7.65 16.5 14.2 26.7 19.33a627.25 627.25 0 0 0-9.31 18.51c-11.98-6.03-22.82-13.72-31.36-22.7a193.09 193.09 0 0 1 13.97-15.14zm-16.75 18.59c8.77 9.21 19.9 17.12 32.2 23.31-2.94 6.22-5.74 12.42-8.35 18.52-13.44-6.77-25.62-15.41-35.2-25.48 3.36-5.55 7.17-11.03 11.35-16.35h0zm-13.47 19.98c9.7 10.2 22.03 18.95 35.65 25.8-2.52 6.04-4.84 11.93-6.89 17.59-14.02-7.07-26.72-16.07-36.71-26.58 2.12-5.6 4.8-11.23 7.95-16.81zm-9.25 20.45c9.99 10.51 22.69 19.52 36.71 26.58h0c-1.91 5.48-3.45 10.41-4.64 14.77-13.61-6.85-25.94-15.6-35.65-25.8.55-4.82 1.73-10.02 3.58-15.55zm-2.2 33.86c8.54 8.97 19.39 16.66 31.36 22.69h0c-.17 2.69 0 4.77.51 6.23-10.21-5.14-19.44-11.69-26.71-19.33a32.83 32.83 0 0 0 1.12 1.27l1.71 1.75c6.74 6.75 15.09 12.56 24.25 17.17h0c.3.47.86.99 1.29 1.35-10.74-5.42-20.35-12.74-28.41-21.51l.04-.03c-2.26-2.73-3.99-5.94-5.16-9.59zm-.67-2.45c-.92-3.84-1.26-8.11-.98-12.77h0c9.58 10.07 21.76 18.71 35.2 25.48h0c-1.03 4.11-1.7 7.65-2.02 10.6-12.3-6.19-23.44-14.1-32.2-23.31zm132.01-115.75c1.14-2.61 1.23-5.63.19-8.78 5.78 2.01 11.08 4.53 15.84 7.48h0c1.72 5.2 1.58 10.17-.3 14.49h0c-4.73-4.75-9.99-9.18-15.73-13.19zm18.73 16.32c2.03-4.66 2.18-10.02.33-15.63 4.53 3.14 8.51 6.71 11.88 10.62h0c2.42 7.35 2.23 14.37-.43 20.47h0c-3.34-5.39-7.28-10.57-11.78-15.46zm22.28 39.65c3.3-7.59 3.59-16.3.67-25.43l-.27-.82c-.27-.82-.55-1.64-.86-2.44l.6 1.6c3.14 9.32 4.94 19.26 5.16 29.59 0-.15 0-.3-.01-.45l-.02 6c-.16 4.65-1.15 9.08-2.95 13.21h0c-.25 5.82-1.26 11.59-3.08 17.21l-.62 1.83-.67 1.82c-.25.62-.47 1.25-.72 1.87 5.21-12.07 8.1-25.37 8.1-39.34l-.02-1.89c.05 5.19-.94 10.13-2.93 14.7h0c-.07-5.83-.88-11.68-2.38-17.46zm-1.07-3.77c-1.79-5.75-4.25-11.41-7.33-16.88 2.77-6.38 2.98-13.72.45-21.4 3.11 4.07 5.6 8.48 7.41 13.15v.01c2.97 9.02 2.73 17.63-.53 25.12zm-50.23 97.88c1.83-.74 3.56-1.55 5.19-2.42a99.38 99.38 0 0 1-9.63 4.66c1.52-.66 3-1.42 4.44-2.24zm2.57-1.59c3.87-2.58 7.43-5.83 10.6-9.72 7.54-3.06 13.63-7.13 18.19-11.96-5.91 6.61-12.69 12.42-20.17 17.26l-4.78 2.91c1.27-.72 2.52-1.48 3.75-2.25-2.31 1.39-4.85 2.65-7.59 3.76zm19.89-100.31a150.14 150.14 0 0 0-7.46-19.32c6.13-2.48 10.53-6.18 13.07-10.64 4.39 5.1 8.23 10.48 11.49 16.04h0c-3.33 5.84-9.09 10.67-17.1 13.92zm1.25 4.3c8.38-3.4 14.41-8.46 17.89-14.56 2.99 5.64 5.37 11.45 7.1 17.33h0c-4.09 7.17-11.15 13.11-21 17.1-.83-6.61-2.17-13.27-3.99-19.87zm4.46 24.17c10.11-4.1 17.37-10.2 21.56-17.55 1.44 5.9 2.2 11.86 2.24 17.76h0c-4.59 8.04-12.53 14.7-23.58 19.18.47-6.31.38-12.81-.22-19.39zm-.16 23.48c11.19-4.54 19.23-11.28 23.87-19.43-.28 5.88-1.31 11.68-3.13 17.32h0l-.01.03.01-.03c-4.78 8.38-13.06 15.34-24.58 20.01 1.86-5.67 3.13-11.68 3.84-17.9zm-5.14 21.54c11.52-4.67 19.8-11.63 24.58-20.01-1.01 2.59-2.13 5.04-3.43 7.41a98.6 98.6 0 0 1-8.06 12.2l-2.75 3.41c.81-.96 1.61-1.94 2.39-2.93-4.79 5.89-11.63 10.82-20.42 14.38 3-4.18 5.59-9 7.69-14.46zM218.22 477.26c3.48-3.17 7.19-6.09 11.09-8.74-1.65 1.15-3.17 2.39-4.56 3.69l-6.53 5.05zm9.49-6.88c2.37-2.22 5.13-4.23 8.26-6a100.79 100.79 0 0 0-5.07 3.09l5.22-3.17c9.49-5.39 19.97-9.25 31.08-11.27.55-.08 1.12-.13 1.64-.19-1.86.21-3.73.61-5.54 1.04-8.77 2.1-15.69 5.68-20.62 10.29l-14.97 6.21zM273 452.16a99.8 99.8 0 0 1 12.04-.73c7.26 0 14.33.78 21.14 2.26.48.13.94.42 1.36.81-8.12-1.77-16.31-2.28-23.83-1.31h0c-3.48-1-7.1-1.41-10.71-1.03zm13.09 1.82c6.97-.9 14.55-.43 22.07 1.21h0c.93 1.21 1.68 3.13 2.25 5.78-4.56-.99-9.16-1.28-13.38-.73h0c-3.62-2.81-7.29-4.9-10.94-6.26zm25.54 22.17c-3.93-5.66-8.05-10.32-12.25-13.97 3.59-.47 7.5-.22 11.38.62h0c.56 3.46.87 7.9.87 13.35zm0 0c-7.3-4.26-14.69-7.56-22-9.92 1.72-1.61 4.13-2.86 7.19-3.59l1.08-.23c4.67 3.58 9.29 8.16 13.73 13.74zm-17.61-15.36c-3.6.86-6.44 2.33-8.46 4.22-6.24-1.72-12.4-2.77-18.39-3.16 3.34-3.12 8.02-5.54 13.95-6.96.69-.17 1.39-.32 2.1-.45 4.01 1.3 8.06 3.33 12.07 6.08 0 .02-1.16.24-1.27.27zm-13.4-7.1c-.77.14-1.52.3-2.27.48-6.41 1.54-11.46 4.15-15.07 7.52h0c-5.91-.1-11.64.45-17.09 1.62 4.72-4.41 11.33-7.83 19.72-9.84.97-.23 1.96-.44 2.96-.63l11.75.85zm22.94 194.73c-7.33 1.38-15.17 1.63-23.23.92 2.23-.67 4.5-2.05 6.76-4.13h0c10.85.96 21.43.4 31.06-1.91 1.87-.44 3.66-.95 5.38-1.5-2.25 1.31-4.59 2.41-7.01 3.25-4.2 1.4-8.53 2.53-12.96 3.37zm22.43-8.17a75.11 75.11 0 0 1-5.53 1.55c-9.89 2.36-20.76 2.94-31.89 1.96 2.26-2.39 4.51-5.47 6.71-9.25h0c12.17 1.07 24.05.44 34.86-2.14 2.09-.51 4.11-1.07 6.04-1.7-3.07 3.86-6.49 7.06-10.19 9.58zm12.14-12.19a79.99 79.99 0 0 1-6.12 1.72c-10.95 2.62-22.98 3.26-35.31 2.17 2.18-4.08 4.29-8.85 6.31-14.3h0c12.69 1.12 25.09.47 36.36-2.23 2.19-.53 4.29-1.12 6.3-1.77-2.09 5.46-4.63 10.26-7.54 14.41zm2.54-16.28c-11.28 2.7-23.67 3.35-36.37 2.23 1.95-5.68 3.7-11.74 5.23-18.06 12.33 1.08 24.36.45 35.31-2.17 2.12-.51 4.16-1.09 6.12-1.72-.8 6.25-2.12 12.27-3.99 17.95 0 .12-5.76 1.64-6.3 1.77zm4.69-22.14c-10.81 2.59-22.69 3.22-34.86 2.15 1.44-6.43 2.66-13.09 3.66-19.87h0c11.14.98 22.01.4 31.9-1.96a73.47 73.47 0 0 0 5.52-1.55c.44 6.64.39 13.19-.18 19.54 0 .12-5.52 1.57-6.04 1.69zm.49-24.07c-9.63 2.31-20.22 2.87-31.06 1.91.91-6.82 1.59-13.73 2.05-20.6h0c9.23.81 18.25.33 26.45-1.63a57.4 57.4 0 0 0 4.58-1.29c1.58 6.69 2.71 13.43 3.36 20.1 0 .11-4.92 1.4-5.38 1.51zm-3.45-24.73c-7.85 1.88-16.47 2.33-25.3 1.56a294.64 294.64 0 0 0 .37-20.28c6.75.59 13.33.24 19.33-1.19a43.74 43.74 0 0 0 3.34-.94c2.64 6.39 4.86 12.96 6.64 19.62 0 .09-4.01 1.14-4.38 1.23zm-26.41-41.89c3.79.33 7.49.14 10.85-.67a24.43 24.43 0 0 0 1.88-.53c3.61 5.74 6.83 11.81 9.65 18.11.02.06-2.85.81-3.1.87-5.56 1.33-11.66 1.65-17.91 1.1h0c-.22-6.54-.67-12.87-1.37-18.88zm-.5-3.87c-.94-6.85-2.23-13.22-3.86-18.93 5.38 5.35 10.29 11.39 14.69 17.91h0a18.67 18.67 0 0 1-1.6.45c-2.86.69-6 .85-9.23.57zm-36.61 154.59c4.91.44 9.75.49 14.43.13-2.73.22-5.48.34-8.27.34a99.24 99.24 0 0 1-8.3-.35 9.65 9.65 0 0 0 2.14-.12h0zm99.45-65.06c-.19.62-.4 1.23-.62 1.84l-.67 1.81c.37-.86 1.84-4.9 1.29-3.65zm-18.54-99.25l-4.44-4.75 3.28 3.5a34.3 34.3 0 0 1 1.16 1.25z" fill="#206eb5"/><path d="M1108.48 690.49v93.92h34.01c19.42 0 27.68-14.46 27.68-25.2 0-7.99-3.99-20.66-22.17-24.1 3.72-1.51 13.91-6.75 13.91-20.24 0-19.01-15.97-24.38-29.88-24.38h-23.55zm20.52 9.09c15.14 0 21.89 4.55 21.89 16.11 0 10.19-6.19 16.67-21.89 16.67h-10.19v-32.78H1129zm6.19 41.87c18.73 0 23.97 9.09 23.97 16.93 0 7.99-3.45 16.94-23.69 16.94h-16.66v-33.87h16.38zm72.03-20.11c-17.77 0-32.09 14.32-32.09 32.09 0 17.76 14.32 32.22 32.09 32.22 17.76 0 32.22-14.46 32.22-32.22 0-17.77-14.46-32.09-32.22-32.09zm.14 8.4c12.94 0 22.3 10.6 22.3 23.69 0 13.08-9.36 23.82-22.3 23.82-12.95 0-22.45-10.74-22.45-23.82 0-13.09 9.5-23.69 22.45-23.69zm92.68 43.79c-3.72 3.03-6.75 4.41-7.99 4.41-1.38 0-1.65-.69-1.65-3.3v-34.02c0-6.95-3.31-19.28-20.94-19.28-10.05 0-17.07 4.96-20.1 7.57v9.78c5.37-4.89 11.15-8.95 19.28-8.95 11.57 0 12.25 7.85 12.25 11.84v5.54c-25.61 4.56-33.87 12.71-33.87 22.81 0 9.11 7.3 15.72 15.97 15.72 5.51 0 10.33-1.24 18.04-7.02.55 2.89 1.66 7.02 6.75 7.02 1.65 0 4.54-.14 12.26-5.64v-6.48zm-19.15-1.4c-2.34 2.23-7.29 6.64-13.9 6.64-3.58 0-10.47-2.07-10.47-9.53 0-7.76 8.54-12.99 24.37-15.9v18.79zm25.48-49.55v61.83h9.5V757.7c0-3.17 0-9.92 2.21-14.88 2.89-6.75 9.64-11.7 15.14-11.7 5.38 0 9.92 3.99 11.99 5.78l5.09-8.26c-2.34-1.93-8.81-7.3-14.73-7.3-4.14 0-8.13 2.62-9.37 3.44-5.09 3.45-8.67 8.82-10.33 11.43v-13.63h-9.5zm96.67 61.83v-93.92h-9.5v34.57c-2.61-1.1-8.12-3.72-15.7-3.72-19.83 0-30.71 14.87-30.71 32.22 0 19.84 12.53 30.85 34.16 30.85h21.75zm-9.5-8.4h-12.12c-14.59 0-24.51-7.85-24.51-22.72 0-12.4 7.16-23.55 22.45-23.55 7.02 0 11.98 2.75 14.18 3.99v42.28zm25.34-85.52v93.92h34.02c19.41 0 27.68-14.46 27.68-25.2 0-7.99-4-20.66-22.17-24.1 3.71-1.51 13.9-6.75 13.9-20.24 0-19.01-15.97-24.38-29.88-24.38h-23.55zm20.52 9.09c15.15 0 21.9 4.55 21.9 16.11 0 10.19-6.2 16.67-21.9 16.67h-10.19v-32.78h10.19zm6.2 41.87c18.73 0 23.96 9.09 23.96 16.93 0 7.99-3.44 16.94-23.69 16.94h-16.66v-33.87h16.39zm92.95 42.96v-61.83h-9.5v43.79c-5.78 9.78-13.63 10.88-17.21 10.88-10.88 0-14.87-8.12-14.87-18.59v-36.08h-9.51v36.91c0 15.97 8.27 26.16 22.18 26.16 8.81 0 14.87-4.54 19.41-10.6v9.36h9.5zm23.28-61.83h-9.5v61.83h9.5v-61.83zm-4.68-25.2c-3.45 0-6.2 2.75-6.2 6.2 0 3.44 2.75 6.19 6.2 6.19a6.16 6.16 0 0 0 6.19-6.19c0-3.45-2.75-6.2-6.19-6.2zm27.95-6.89h-9.5v93.92h9.5zm66.52 93.92v-93.92h-9.51v34.57c-2.61-1.1-8.12-3.72-15.7-3.72-19.83 0-30.71 14.87-30.71 32.22 0 19.84 12.54 30.85 34.16 30.85h21.76zm-9.51-8.4H1630c-14.6 0-24.52-7.85-24.52-22.72 0-12.4 7.16-23.55 22.45-23.55 7.02 0 11.98 2.75 14.18 3.99v42.28zm75.75-24.1c0-18.04-11.99-30.57-27.27-30.57-14.05 0-28.37 10.47-28.37 31.95 0 16.66 10.19 32.36 30.85 32.36 13.08 0 19.97-4.82 23.82-7.43v-9.64c-3.03 2.47-10.6 8.67-22.72 8.67-11.84 0-22.17-8.26-22.17-23.13h45.86v-2.21zm-45.31-4.68c2.34-12.53 10.6-17.49 18.31-17.49 6.75 0 15.84 4.13 17.22 17.49h-35.53zm54.95-24.65v61.83h9.5V757.7c0-3.17 0-9.92 2.2-14.88 2.89-6.75 9.64-11.7 15.15-11.7 5.37 0 9.91 3.99 11.98 5.78l5.1-8.26c-2.35-1.93-8.82-7.3-14.74-7.3-4.13 0-8.12 2.62-9.36 3.44-5.1 3.45-8.68 8.82-10.33 11.43v-13.63h-9.5z" fill="#434242"/></g></svg>
